<?xml version="1.0" encoding="UTF-8"?>
<svg id="Layer_2" data-name="Layer 2" xmlns="http://www.w3.org/2000/svg" viewBox="0 0 1080 1080">
  <defs>
    <style>
      .cls-1 {
        fill: #9fc131;
      }

      .cls-1, .cls-2 {
        stroke-width: 0px;
      }

      .cls-2 {
        fill: #115923;
      }
    </style>
  </defs>
  <g id="Layer_1-2" data-name="Layer 1">
    <rect class="cls-1" width="1080" height="1080"/>
    <path class="cls-2" d="M567.59,793.04l-23.02-6.59c17.61-61.46,23.35-124.36,17.06-186.94-2.54-25.3-5.97-59.42-21.43-100.55-66.53,1.13-154.22.09-220.07-63.89-34.3-33.33-57.35-79.02-66.66-132.15l-2.19-12.51,12.61-1.45c38.87-4.48,97.58-3.53,156.44,26.46,84.27,42.94,119.73,119.8,135.96,159.23,89.06-3.2,178.65-31.81,259.66-82.96l12.79,20.24c-82.09,51.85-172.79,81.51-263.34,86.28,14.23,40.8,17.69,75.23,20.06,98.91,6.6,65.62.58,131.54-17.86,195.93ZM279.61,311.54c9.66,42.65,29.28,79.22,57.2,106.34,56.18,54.59,130.39,58,193.7,57.26-16.61-38.46-50.11-102.25-121.06-138.4-47.38-24.14-94.87-27.57-129.85-25.2Z"/>
  </g>
</svg>