<?xml version="1.0" encoding="UTF-8"?>
<svg id="Layer_2" data-name="Layer 2" xmlns="http://www.w3.org/2000/svg" viewBox="0 0 577.45 506.07">
  <defs>
    <style>
      .cls-1 {
        fill: #115923;
        stroke-width: 0px;
      }
    </style>
  </defs>
  <g id="Layer_1-2" data-name="Layer 1">
    <path class="cls-1" d="M316.31,506.07l-23.02-6.59c17.61-61.46,23.35-124.36,17.06-186.94-2.54-25.3-5.97-59.42-21.43-100.55-66.53,1.13-154.22.09-220.07-63.89C34.55,114.77,11.5,69.07,2.19,15.94L0,3.43l12.61-1.45C51.48-2.5,110.19-1.55,169.05,28.45c84.27,42.94,119.73,119.8,135.96,159.23,89.06-3.2,178.65-31.81,259.66-82.96l12.79,20.24c-82.09,51.85-172.79,81.51-263.34,86.28,14.23,40.8,17.69,75.23,20.06,98.91,6.6,65.62.58,131.54-17.86,195.93ZM28.34,24.58c9.66,42.65,29.28,79.22,57.2,106.34,56.18,54.59,130.39,58,193.7,57.26-16.61-38.46-50.11-102.25-121.06-138.4C110.8,25.64,63.31,22.21,28.34,24.58Z"/>
  </g>
</svg>