<?xml version="1.0" encoding="UTF-8"?>
<svg id="Layer_2" data-name="Layer 2" xmlns="http://www.w3.org/2000/svg" viewBox="0 0 1080 1080">
  <defs>
    <style>
      .cls-1 {
        fill: #9fc131;
      }

      .cls-1, .cls-2 {
        stroke-width: 0px;
      }

      .cls-2 {
        fill: #f7f7f7;
      }
    </style>
  </defs>
  <g id="Layer_1-2" data-name="Layer 1">
    <rect class="cls-2" width="1080" height="1080"/>
    <g>
      <g>
        <path class="cls-1" d="M460.68,635.04v6.6c0,1.38-.69,2.06-2.06,2.06h-66.64c-.55,0-.83.28-.83.82.28,7.57.69,12.45,1.24,14.65,1.51,6.19,4.74,11.08,9.7,14.65,4.95,3.58,11.28,5.36,18.98,5.36,5.78,0,10.86-1.3,15.27-3.92,4.4-2.61,7.84-6.33,10.32-11.14.83-1.24,1.78-1.51,2.89-.83l8.04,4.74c1.1.69,1.37,1.65.83,2.89-3.44,6.6-8.6,11.8-15.47,15.58-6.88,3.79-14.79,5.68-23.73,5.68-9.77-.14-17.95-2.48-24.55-7.02-6.6-4.54-11.35-10.86-14.24-18.98-2.47-6.6-3.71-16.1-3.71-28.47,0-5.78.1-10.49.31-14.13.21-3.64.72-6.91,1.55-9.8,2.34-8.94,7.05-16.09,14.13-21.46,7.08-5.36,15.65-8.04,25.69-8.04,12.51,0,22.14,3.17,28.89,9.49,6.74,6.33,10.93,15.27,12.59,26.82.55,3.85.82,8.67.82,14.44ZM401.57,602.33c-4.47,3.51-7.4,8.22-8.77,14.13-.83,2.89-1.38,7.56-1.65,14.03,0,.55.28.83.83.83h53.44c.55,0,.83-.28.83-.83-.28-6.19-.69-10.59-1.24-13.21-1.52-6.19-4.58-11.11-9.18-14.75-4.61-3.64-10.42-5.47-17.43-5.47s-12.35,1.75-16.82,5.26Z"/>
        <path class="cls-1" d="M494.62,684.25c-7.09-5.16-11.94-12.14-14.55-20.94-1.79-6.05-2.68-14.58-2.68-25.59,0-9.9.89-18.29,2.68-25.17,2.48-8.53,7.29-15.37,14.44-20.53,7.15-5.16,15.68-7.74,25.59-7.74s18.74,2.55,26.1,7.63c7.36,5.09,12.14,11.42,14.34,18.98.69,2.48,1.1,4.54,1.24,6.19v.41c0,.96-.62,1.58-1.86,1.86l-10.32,1.44h-.41c-.96,0-1.58-.62-1.86-1.86l-.62-3.09c-1.24-5.23-4.26-9.66-9.08-13.31-4.82-3.64-10.66-5.47-17.54-5.47s-12.62,1.82-17.23,5.47c-4.61,3.65-7.6,8.49-8.98,14.55-1.24,5.23-1.86,12.17-1.86,20.84s.62,16.09,1.86,21.05c1.37,6.19,4.37,11.11,8.98,14.75,4.61,3.65,10.35,5.47,17.23,5.47s12.55-1.75,17.44-5.26c4.88-3.51,7.94-8.01,9.18-13.51v-.83l.21-.83c.13-1.37.96-1.92,2.48-1.65l10.11,1.65c1.37.28,1.99,1.03,1.86,2.27l-.83,4.13c-2.06,7.98-6.81,14.44-14.24,19.4-7.43,4.95-16.16,7.43-26.2,7.43s-18.4-2.58-25.48-7.74Z"/>
        <path class="cls-1" d="M648.55,594.18c6.53,6.47,9.8,15.13,9.8,26v68.09c0,1.38-.69,2.06-2.06,2.06h-10.52c-1.38,0-2.06-.69-2.06-2.06v-65.2c0-7.56-2.3-13.75-6.91-18.57-4.61-4.81-10.56-7.22-17.85-7.22s-13.69,2.34-18.36,7.02c-4.68,4.68-7.02,10.8-7.02,18.36v65.61c0,1.38-.69,2.06-2.06,2.06h-10.52c-1.37,0-2.06-.69-2.06-2.06v-100.28c0-1.37.69-2.06,2.06-2.06h10.52c1.37,0,2.06.69,2.06,2.06v8.87c0,.28.1.48.31.62s.38.07.52-.21c6.05-8.53,15.33-12.79,27.85-12.79,11,0,19.77,3.24,26.31,9.7Z"/>
        <path class="cls-1" d="M746.24,585.93h10.52c1.37,0,2.06.69,2.06,2.06v100.28c0,1.38-.69,2.06-2.06,2.06h-10.52c-1.38,0-2.06-.69-2.06-2.06v-8.87c0-.28-.14-.48-.41-.62-.28-.13-.48-.07-.62.21-5.78,8.53-14.93,12.79-27.44,12.79-6.6,0-12.69-1.34-18.26-4.03-5.57-2.68-9.98-6.57-13.21-11.66-3.23-5.09-4.85-11.21-4.85-18.36v-69.74c0-1.37.69-2.06,2.06-2.06h10.52c1.37,0,2.06.69,2.06,2.06v65.41c0,7.84,2.2,14.07,6.6,18.67,4.4,4.61,10.38,6.91,17.95,6.91s14.06-2.34,18.67-7.02c4.61-4.67,6.91-10.86,6.91-18.57v-65.41c0-1.37.69-2.06,2.06-2.06Z"/>
        <path class="cls-1" d="M827.33,598.1h-23.32c-.55,0-.82.28-.82.82v60.87c0,6.6,1.48,11.25,4.44,13.93,2.95,2.68,7.6,4.02,13.93,4.02h5.16c1.37,0,2.06.69,2.06,2.06v8.46c0,1.38-.69,2.06-2.06,2.06-1.65.13-4.2.21-7.63.21-9.91,0-17.4-1.86-22.49-5.57-5.09-3.72-7.63-10.59-7.63-20.63v-65.41c0-.55-.28-.82-.83-.82h-12.58c-1.38,0-2.06-.69-2.06-2.06v-8.05c0-1.37.69-2.06,2.06-2.06h12.58c.55,0,.83-.28.83-.83v-23.93c0-1.37.69-2.06,2.06-2.06h10.11c1.37,0,2.06.69,2.06,2.06v23.93c0,.55.27.83.82.83h23.32c1.37,0,2.06.69,2.06,2.06v8.05c0,1.37-.69,2.06-2.06,2.06Z"/>
        <path class="cls-1" d="M902.43,587.58c1.1.55,1.51,1.44,1.24,2.68l-2.27,10.11c-.41,1.38-1.31,1.79-2.68,1.24-2.34-.96-5.02-1.44-8.04-1.44l-2.68.21c-7.15.28-13.07,2.92-17.74,7.94-4.68,5.02-7.02,11.38-7.02,19.09v60.87c0,1.38-.69,2.06-2.06,2.06h-10.52c-1.37,0-2.06-.69-2.06-2.06v-100.28c0-1.37.69-2.06,2.06-2.06h10.52c1.37,0,2.06.69,2.06,2.06v12.59c0,.41.1.65.31.72s.38-.03.52-.31c2.89-5.08,6.57-9.04,11.04-11.86,4.47-2.82,9.66-4.23,15.58-4.23,4.54,0,8.46.9,11.76,2.68Z"/>
        <path class="cls-1" d="M916.25,563.64c-2.2-2.2-3.3-4.95-3.3-8.25s1.1-6.22,3.3-8.36c2.2-2.13,4.95-3.2,8.26-3.2s6.05,1.07,8.25,3.2c2.2,2.14,3.3,4.92,3.3,8.36s-1.1,6.05-3.3,8.25-4.95,3.3-8.25,3.3-6.05-1.1-8.26-3.3ZM916.67,688.06v-100.28c0-1.37.69-2.06,2.06-2.06h10.52c1.37,0,2.06.69,2.06,2.06v100.28c0,1.37-.69,2.06-2.06,2.06h-10.52c-1.37,0-2.06-.69-2.06-2.06Z"/>
      </g>
      <path class="cls-1" d="M334.06,691.99l-13.84-3.96c10.59-36.94,14.03-74.75,10.25-112.37-1.53-15.21-3.59-35.72-12.88-60.44-39.99.68-92.7.05-132.28-38.4-20.62-20.03-34.47-47.5-40.07-79.43l-1.32-7.52,7.58-.87c23.36-2.7,58.65-2.12,94.03,15.91,50.65,25.81,71.97,72.01,81.72,95.71,53.53-1.93,107.38-19.12,156.07-49.87l7.69,12.17c-49.34,31.16-103.86,48.99-158.28,51.86,8.55,24.52,10.63,45.22,12.06,59.45,3.97,39.44.35,79.06-10.74,117.77ZM160.97,402.58c5.8,25.64,17.6,47.62,34.38,63.92,33.77,32.81,78.37,34.86,116.43,34.42-9.98-23.12-30.12-61.46-72.76-83.19-28.48-14.51-57.03-16.57-78.05-15.15Z"/>
    </g>
  </g>
</svg>