<?xml version="1.0" encoding="UTF-8"?>
<svg id="Layer_2" data-name="Layer 2" xmlns="http://www.w3.org/2000/svg" viewBox="0 0 796.77 384.9">
  <defs>
    <style>
      .cls-1 {
        fill: #9fc131;
        stroke-width: 0px;
      }
    </style>
  </defs>
  <g id="Layer_1-2" data-name="Layer 1">
    <g>
      <g>
        <path class="cls-1" d="M486.21,352.09c1.6,1.58,2.39,3.66,2.39,6.25v16.64c0,.33-.17.5-.5.5h-1.66c-.34,0-.51-.17-.51-.5v-16.13c0-1.98-.6-3.6-1.81-4.86s-2.79-1.89-4.74-1.89-3.65.61-4.89,1.84c-1.24,1.23-1.87,2.83-1.87,4.82v16.23c0,.33-.17.5-.5.5h-1.66c-.33,0-.5-.17-.5-.5v-24.4c0-.34.17-.51.5-.51h1.66c.34,0,.5.17.5.51v2.47c0,.1.03.16.08.18s.09,0,.13-.08c.74-1.11,1.71-1.96,2.92-2.54,1.21-.59,2.61-.88,4.19-.88,2.59,0,4.68.79,6.27,2.37Z"/>
        <path class="cls-1" d="M513.1,350.07h1.61c.34,0,.5.17.5.51v24.4c0,.33-.17.5-.5.5h-1.61c-.33,0-.5-.17-.5-.5v-2.47c0-.1-.03-.16-.1-.18s-.12.03-.15.13c-.71,1.11-1.66,1.95-2.85,2.52s-2.59.86-4.21.86c-2.49,0-4.55-.74-6.2-2.22s-2.47-3.51-2.47-6.1v-16.94c0-.34.17-.51.5-.51h1.61c.33,0,.5.17.5.51v16.23c0,2.02.6,3.63,1.79,4.84,1.19,1.21,2.78,1.82,4.76,1.82s3.7-.61,4.94-1.84c1.24-1.23,1.86-2.83,1.86-4.81v-16.23c0-.34.17-.51.5-.51Z"/>
        <path class="cls-1" d="M534.07,352.34h-5.9c-.13,0-.2.07-.2.2v15.93c0,1.71.39,2.92,1.16,3.61s2.02,1.03,3.73,1.03h1.16c.33,0,.5.17.5.51v1.36c0,.33-.17.5-.5.5l-1.51.05c-2.35,0-4.13-.45-5.32-1.36-1.19-.91-1.81-2.57-1.84-4.99v-16.64c0-.13-.07-.2-.2-.2h-3.02c-.34,0-.51-.17-.51-.5v-1.26c0-.34.17-.51.51-.51h3.02c.13,0,.2-.06.2-.2v-5.75c0-.33.17-.5.51-.5h1.61c.34,0,.51.17.51.5v5.75c0,.13.07.2.2.2h5.9c.34,0,.51.17.51.51v1.26c0,.34-.17.5-.51.5Z"/>
        <path class="cls-1" d="M554.58,350.48c.27.1.37.32.3.65l-.46,1.61c-.1.33-.32.44-.65.3-.67-.27-1.51-.39-2.52-.35-1.88.03-3.44.75-4.66,2.14-1.23,1.39-1.84,3.1-1.84,5.12v15.02c0,.33-.17.5-.5.5h-1.66c-.33,0-.5-.17-.5-.5v-24.4c0-.34.17-.51.5-.51h1.66c.34,0,.5.17.5.51v3.43c0,.1.03.16.08.18s.09-.03.13-.13c.71-1.31,1.62-2.34,2.75-3.08,1.13-.74,2.45-1.11,3.96-1.11,1.14,0,2.12.2,2.92.6Z"/>
        <path class="cls-1" d="M560.43,344.28c-.47-.47-.71-1.07-.71-1.81s.23-1.34.71-1.82,1.07-.71,1.81-.71,1.34.24,1.82.71c.47.47.71,1.08.71,1.82s-.24,1.34-.71,1.81-1.08.71-1.82.71-1.34-.23-1.81-.71ZM560.78,374.93v-24.4c0-.34.17-.51.51-.51h1.66c.34,0,.51.17.51.51v24.4c0,.33-.17.5-.51.5h-1.66c-.34,0-.51-.17-.51-.5Z"/>
        <path class="cls-1" d="M589.36,368.22c.07-.37.27-.52.6-.46l1.56.25c.34.07.49.25.46.55l-.2.91c-.44,1.78-1.43,3.25-2.97,4.41-1.55,1.16-3.43,1.82-5.65,1.99-.2,0-.23.07-.1.2,1.78,1.48,2.67,3.04,2.67,4.69,0,.4-.05.77-.15,1.11-.24,1.04-.75,1.81-1.54,2.29s-1.69.73-2.7.73c-.6,0-1.25-.08-1.92-.25-.3-.03-.42-.24-.35-.61l.15-.71c.03-.33.23-.45.6-.35.27.07.64.1,1.11.1.77,0,1.41-.2,1.92-.6.5-.4.76-1.06.76-1.97,0-.77-.28-1.57-.83-2.39s-1.28-1.59-2.19-2.29c-.03-.07-.12-.1-.25-.1-1.88-.34-3.48-1.09-4.79-2.27-1.31-1.18-2.2-2.66-2.67-4.44-.44-1.61-.65-3.71-.65-6.3s.22-4.57.65-6.25c.54-2.05,1.65-3.7,3.33-4.94,1.68-1.24,3.71-1.86,6.1-1.86s4.44.6,6.17,1.81c1.73,1.21,2.83,2.72,3.3,4.54.13.47.23.94.3,1.41v.1c0,.24-.15.39-.45.46l-1.61.2h-.1c-.23,0-.39-.15-.45-.45l-.15-.71c-.3-1.41-1.09-2.6-2.37-3.55-1.28-.96-2.82-1.44-4.64-1.44s-3.39.49-4.61,1.46c-1.23.98-2.01,2.27-2.34,3.88-.3,1.28-.45,3.08-.45,5.39s.15,4.13.45,5.34c.33,1.65,1.12,2.96,2.34,3.93,1.23.98,2.76,1.46,4.61,1.46s3.37-.48,4.66-1.44c1.29-.96,2.07-2.16,2.34-3.61l.05-.25Z"/>
        <path class="cls-1" d="M614.26,351.97c1.54,1.53,2.32,3.59,2.32,6.17v16.84c0,.33-.17.5-.5.5h-1.66c-.33,0-.5-.17-.5-.5v-2.37c0-.07-.03-.12-.08-.15s-.11-.02-.18.05c-.87,1.11-2.01,1.95-3.4,2.52-1.39.57-2.95.85-4.66.85-2.32,0-4.28-.59-5.9-1.76s-2.42-2.97-2.42-5.39.92-4.45,2.77-5.9c1.85-1.44,4.39-2.17,7.61-2.17h6.05c.13,0,.2-.07.2-.2v-2.27c0-1.88-.53-3.38-1.59-4.49-1.06-1.11-2.68-1.66-4.86-1.66-1.71,0-3.13.35-4.24,1.06-1.11.71-1.8,1.65-2.07,2.82-.1.34-.3.49-.6.46l-1.77-.25c-.37-.07-.52-.2-.45-.4.3-1.82,1.28-3.28,2.95-4.39,1.66-1.11,3.74-1.66,6.23-1.66,2.96,0,5.21.76,6.75,2.29ZM611.56,372c1.56-1.04,2.34-2.49,2.34-4.33v-4.59c0-.13-.07-.2-.2-.2h-5.8c-2.39,0-4.31.5-5.77,1.51s-2.19,2.4-2.19,4.18c0,1.65.57,2.89,1.71,3.73,1.14.84,2.6,1.26,4.39,1.26,2.12,0,3.95-.52,5.52-1.56ZM609.07,344.4c-.44-.19-.94-.46-1.51-.83-.57-.37-1.03-.64-1.36-.81-.33-.17-.71-.25-1.11-.25-.57,0-1.08.1-1.51.3s-.86.55-1.26,1.06c-.2.33-.44.37-.71.1l-.65-.56c-.24-.23-.27-.47-.1-.71,1.07-1.54,2.45-2.32,4.13-2.32.5,0,.96.08,1.36.25.4.17.77.35,1.11.53.33.19.55.31.65.38.64.37,1.12.64,1.46.81.33.17.69.25,1.06.25,1.11,0,2.02-.5,2.72-1.51.2-.3.44-.33.71-.1l.55.5c.24.24.27.52.1.86-.47.77-1.09,1.35-1.84,1.74-.76.39-1.52.58-2.29.58-.57,0-1.08-.09-1.51-.28Z"/>
        <path class="cls-1" d="M627.31,374.02c-1.68-1.24-2.82-2.91-3.43-4.99-.37-1.34-.55-3.45-.55-6.3s.19-4.94.55-6.25c.61-2.08,1.74-3.74,3.4-4.97,1.66-1.23,3.7-1.84,6.13-1.84s4.38.62,6.07,1.86c1.7,1.25,2.83,2.89,3.4,4.94.2.77.33,1.64.4,2.59s.1,2.18.1,3.65-.03,2.79-.1,3.73c-.07.94-.2,1.8-.4,2.57-.57,2.08-1.71,3.75-3.4,4.99-1.69,1.24-3.74,1.86-6.12,1.86s-4.37-.62-6.05-1.86ZM637.93,372.03c1.26-.99,2.07-2.29,2.44-3.91.24-.91.35-2.69.35-5.34s-.1-4.47-.3-5.34c-.37-1.64-1.18-2.95-2.45-3.93-1.26-.98-2.8-1.46-4.61-1.46s-3.34.49-4.59,1.46c-1.25.98-2.05,2.29-2.42,3.93-.24,1.04-.35,2.82-.35,5.34s.12,4.3.35,5.34c.37,1.65,1.17,2.96,2.42,3.93,1.24.98,2.77,1.46,4.59,1.46s3.3-.5,4.56-1.49Z"/>
        <path class="cls-1" d="M676.61,351.97c1.54,1.53,2.32,3.59,2.32,6.17v16.84c0,.33-.17.5-.5.5h-1.66c-.33,0-.5-.17-.5-.5v-2.37c0-.07-.03-.12-.08-.15s-.11-.02-.18.05c-.87,1.11-2.01,1.95-3.4,2.52-1.39.57-2.95.85-4.66.85-2.32,0-4.28-.59-5.9-1.76s-2.42-2.97-2.42-5.39.92-4.45,2.77-5.9c1.85-1.44,4.39-2.17,7.61-2.17h6.05c.13,0,.2-.07.2-.2v-2.27c0-1.88-.53-3.38-1.59-4.49-1.06-1.11-2.68-1.66-4.86-1.66-1.71,0-3.13.35-4.24,1.06-1.11.71-1.8,1.65-2.07,2.82-.1.34-.3.49-.6.46l-1.77-.25c-.37-.07-.52-.2-.45-.4.3-1.82,1.28-3.28,2.95-4.39,1.66-1.11,3.74-1.66,6.23-1.66,2.96,0,5.21.76,6.75,2.29ZM673.91,372c1.56-1.04,2.34-2.49,2.34-4.33v-4.59c0-.13-.07-.2-.2-.2h-5.8c-2.39,0-4.31.5-5.77,1.51s-2.19,2.4-2.19,4.18c0,1.65.57,2.89,1.71,3.73,1.14.84,2.6,1.26,4.39,1.26,2.12,0,3.95-.52,5.52-1.56Z"/>
        <path class="cls-1" d="M703.2,352.09c1.6,1.58,2.39,3.66,2.39,6.25v16.64c0,.33-.17.5-.5.5h-1.66c-.34,0-.51-.17-.51-.5v-16.13c0-1.98-.6-3.6-1.81-4.86s-2.79-1.89-4.74-1.89-3.65.61-4.89,1.84c-1.24,1.23-1.87,2.83-1.87,4.82v16.23c0,.33-.17.5-.5.5h-1.66c-.33,0-.5-.17-.5-.5v-24.4c0-.34.17-.51.5-.51h1.66c.34,0,.5.17.5.51v2.47c0,.1.03.16.08.18s.09,0,.13-.08c.74-1.11,1.71-1.96,2.92-2.54,1.21-.59,2.61-.88,4.19-.88,2.59,0,4.68.79,6.27,2.37Z"/>
        <path class="cls-1" d="M714.26,344.28c-.47-.47-.71-1.07-.71-1.81s.23-1.34.71-1.82,1.07-.71,1.81-.71,1.34.24,1.82.71c.47.47.71,1.08.71,1.82s-.24,1.34-.71,1.81-1.08.71-1.82.71-1.34-.23-1.81-.71ZM714.61,374.93v-24.4c0-.34.17-.51.51-.51h1.66c.34,0,.51.17.51.51v24.4c0,.33-.17.5-.51.5h-1.66c-.34,0-.51-.17-.51-.5Z"/>
        <path class="cls-1" d="M758.01,351.94c1.48,1.48,2.22,3.51,2.22,6.1v16.94c0,.33-.17.5-.5.5h-1.61c-.34,0-.5-.17-.5-.5v-16.43c0-1.98-.58-3.55-1.74-4.71-1.16-1.16-2.66-1.74-4.51-1.74-1.95,0-3.52.57-4.71,1.71-1.19,1.14-1.79,2.69-1.79,4.64v16.53c0,.33-.17.5-.5.5h-1.61c-.34,0-.51-.17-.51-.5v-16.43c0-1.98-.57-3.55-1.71-4.71-1.14-1.16-2.64-1.74-4.49-1.74-1.98,0-3.55.57-4.71,1.71-1.16,1.14-1.74,2.69-1.74,4.64v16.53c0,.33-.17.5-.5.5h-1.66c-.33,0-.5-.17-.5-.5v-24.4c0-.34.17-.51.5-.51h1.66c.34,0,.5.17.5.51v2.27c0,.07.03.12.1.15.07.03.12.02.15-.05.71-1.07,1.66-1.88,2.85-2.42s2.55-.81,4.06-.81c1.75,0,3.25.38,4.51,1.13,1.26.76,2.21,1.82,2.85,3.2.07.13.15.15.25.05.71-1.44,1.73-2.54,3.07-3.28s2.91-1.11,4.69-1.11c2.45,0,4.42.74,5.9,2.22Z"/>
        <path class="cls-1" d="M783.77,351.97c1.54,1.53,2.32,3.59,2.32,6.17v16.84c0,.33-.17.5-.5.5h-1.66c-.33,0-.5-.17-.5-.5v-2.37c0-.07-.03-.12-.08-.15s-.11-.02-.18.05c-.87,1.11-2.01,1.95-3.4,2.52-1.39.57-2.95.85-4.66.85-2.32,0-4.28-.59-5.9-1.76s-2.42-2.97-2.42-5.39.92-4.45,2.77-5.9c1.85-1.44,4.39-2.17,7.61-2.17h6.05c.13,0,.2-.07.2-.2v-2.27c0-1.88-.53-3.38-1.59-4.49-1.06-1.11-2.68-1.66-4.86-1.66-1.71,0-3.13.35-4.24,1.06-1.11.71-1.8,1.65-2.07,2.82-.1.34-.3.49-.6.46l-1.77-.25c-.37-.07-.52-.2-.45-.4.3-1.82,1.28-3.28,2.95-4.39,1.66-1.11,3.74-1.66,6.23-1.66,2.96,0,5.21.76,6.75,2.29ZM781.07,372c1.56-1.04,2.34-2.49,2.34-4.33v-4.59c0-.13-.07-.2-.2-.2h-5.8c-2.39,0-4.31.5-5.77,1.51s-2.19,2.4-2.19,4.18c0,1.65.57,2.89,1.71,3.73,1.14.84,2.6,1.26,4.39,1.26,2.12,0,3.95-.52,5.52-1.56Z"/>
        <path class="cls-1" d="M794.1,374.98v-34.28c0-.33.17-.5.5-.5h1.66c.34,0,.5.17.5.5v34.28c0,.33-.17.5-.5.5h-1.66c-.33,0-.5-.17-.5-.5Z"/>
      </g>
      <g>
        <path class="cls-1" d="M316.75,247.23v6.6c0,1.38-.69,2.06-2.06,2.06h-66.64c-.55,0-.83.28-.83.82.28,7.57.69,12.45,1.24,14.65,1.51,6.19,4.74,11.08,9.7,14.65,4.95,3.58,11.28,5.36,18.98,5.36,5.78,0,10.86-1.3,15.27-3.92,4.4-2.61,7.84-6.33,10.32-11.14.83-1.24,1.78-1.51,2.89-.83l8.04,4.74c1.1.69,1.37,1.65.83,2.89-3.44,6.6-8.6,11.8-15.47,15.58-6.88,3.79-14.79,5.68-23.73,5.68-9.77-.14-17.95-2.48-24.55-7.02s-11.35-10.86-14.24-18.98c-2.47-6.6-3.71-16.1-3.71-28.47,0-5.78.1-10.49.31-14.13.21-3.64.72-6.91,1.55-9.8,2.34-8.94,7.05-16.09,14.13-21.46,7.08-5.36,15.65-8.04,25.69-8.04,12.51,0,22.14,3.17,28.89,9.49,6.74,6.33,10.93,15.27,12.59,26.82.55,3.85.82,8.67.82,14.44ZM257.63,214.53c-4.47,3.51-7.4,8.22-8.77,14.13-.83,2.89-1.38,7.56-1.65,14.03,0,.55.28.83.83.83h53.44c.55,0,.83-.28.83-.83-.28-6.19-.69-10.59-1.24-13.21-1.52-6.19-4.58-11.11-9.18-14.75-4.61-3.64-10.42-5.47-17.43-5.47s-12.35,1.75-16.82,5.26Z"/>
        <path class="cls-1" d="M350.69,296.44c-7.09-5.16-11.94-12.14-14.55-20.94-1.79-6.05-2.68-14.58-2.68-25.59,0-9.9.89-18.29,2.68-25.17,2.48-8.53,7.29-15.37,14.44-20.53,7.15-5.16,15.68-7.74,25.59-7.74s18.74,2.55,26.1,7.63c7.36,5.09,12.14,11.42,14.34,18.98.69,2.48,1.1,4.54,1.24,6.19v.41c0,.96-.62,1.58-1.86,1.86l-10.32,1.44h-.41c-.96,0-1.58-.62-1.86-1.86l-.62-3.09c-1.24-5.23-4.26-9.66-9.08-13.31-4.82-3.64-10.66-5.47-17.54-5.47s-12.62,1.82-17.23,5.47c-4.61,3.65-7.6,8.49-8.98,14.55-1.24,5.23-1.86,12.17-1.86,20.84s.62,16.09,1.86,21.05c1.37,6.19,4.37,11.11,8.98,14.75,4.61,3.65,10.35,5.47,17.23,5.47s12.55-1.75,17.44-5.26c4.88-3.51,7.94-8.01,9.18-13.51v-.83l.21-.83c.13-1.37.96-1.92,2.48-1.65l10.11,1.65c1.37.28,1.99,1.03,1.86,2.27l-.83,4.13c-2.06,7.98-6.81,14.44-14.24,19.4-7.43,4.95-16.16,7.43-26.2,7.43s-18.4-2.58-25.48-7.74Z"/>
        <path class="cls-1" d="M504.61,206.37c6.53,6.47,9.8,15.13,9.8,26v68.09c0,1.38-.69,2.06-2.06,2.06h-10.52c-1.38,0-2.06-.69-2.06-2.06v-65.2c0-7.56-2.3-13.75-6.91-18.57-4.61-4.81-10.56-7.22-17.85-7.22s-13.69,2.34-18.36,7.02c-4.68,4.68-7.02,10.8-7.02,18.36v65.61c0,1.38-.69,2.06-2.06,2.06h-10.52c-1.37,0-2.06-.69-2.06-2.06v-100.28c0-1.37.69-2.06,2.06-2.06h10.52c1.37,0,2.06.69,2.06,2.06v8.87c0,.28.1.48.31.62s.38.07.52-.21c6.05-8.53,15.33-12.79,27.85-12.79,11,0,19.77,3.24,26.31,9.7Z"/>
        <path class="cls-1" d="M602.3,198.12h10.52c1.37,0,2.06.69,2.06,2.06v100.28c0,1.38-.69,2.06-2.06,2.06h-10.52c-1.38,0-2.06-.69-2.06-2.06v-8.87c0-.28-.14-.48-.41-.62-.28-.13-.48-.07-.62.21-5.78,8.53-14.93,12.79-27.44,12.79-6.6,0-12.69-1.34-18.26-4.03-5.57-2.68-9.98-6.57-13.21-11.66-3.23-5.09-4.85-11.21-4.85-18.36v-69.74c0-1.37.69-2.06,2.06-2.06h10.52c1.37,0,2.06.69,2.06,2.06v65.41c0,7.84,2.2,14.07,6.6,18.67,4.4,4.61,10.38,6.91,17.95,6.91s14.06-2.34,18.67-7.02c4.61-4.67,6.91-10.86,6.91-18.57v-65.41c0-1.37.69-2.06,2.06-2.06Z"/>
        <path class="cls-1" d="M683.39,210.29h-23.32c-.55,0-.82.28-.82.82v60.87c0,6.6,1.48,11.25,4.44,13.93,2.95,2.68,7.6,4.02,13.93,4.02h5.16c1.37,0,2.06.69,2.06,2.06v8.46c0,1.38-.69,2.06-2.06,2.06-1.65.13-4.2.21-7.63.21-9.91,0-17.4-1.86-22.49-5.57-5.09-3.72-7.63-10.59-7.63-20.63v-65.41c0-.55-.28-.82-.83-.82h-12.58c-1.38,0-2.06-.69-2.06-2.06v-8.05c0-1.37.69-2.06,2.06-2.06h12.58c.55,0,.83-.28.83-.83v-23.93c0-1.37.69-2.06,2.06-2.06h10.11c1.37,0,2.06.69,2.06,2.06v23.93c0,.55.27.83.82.83h23.32c1.37,0,2.06.69,2.06,2.06v8.05c0,1.37-.69,2.06-2.06,2.06Z"/>
        <path class="cls-1" d="M758.49,199.77c1.1.55,1.51,1.44,1.24,2.68l-2.27,10.11c-.41,1.38-1.31,1.79-2.68,1.24-2.34-.96-5.02-1.44-8.04-1.44l-2.68.21c-7.15.28-13.07,2.92-17.74,7.94-4.68,5.02-7.02,11.38-7.02,19.09v60.87c0,1.38-.69,2.06-2.06,2.06h-10.52c-1.37,0-2.06-.69-2.06-2.06v-100.28c0-1.37.69-2.06,2.06-2.06h10.52c1.37,0,2.06.69,2.06,2.06v12.59c0,.41.1.65.31.72s.38-.03.52-.31c2.89-5.08,6.57-9.04,11.04-11.86,4.47-2.82,9.66-4.23,15.58-4.23,4.54,0,8.46.9,11.76,2.68Z"/>
        <path class="cls-1" d="M772.32,175.84c-2.2-2.2-3.3-4.95-3.3-8.25s1.1-6.22,3.3-8.36c2.2-2.13,4.95-3.2,8.26-3.2s6.05,1.07,8.25,3.2c2.2,2.14,3.3,4.92,3.3,8.36s-1.1,6.05-3.3,8.25-4.95,3.3-8.25,3.3-6.05-1.1-8.26-3.3ZM772.73,300.26v-100.28c0-1.37.69-2.06,2.06-2.06h10.52c1.37,0,2.06.69,2.06,2.06v100.28c0,1.37-.69,2.06-2.06,2.06h-10.52c-1.37,0-2.06-.69-2.06-2.06Z"/>
      </g>
      <path class="cls-1" d="M190.13,304.19l-13.84-3.96c10.59-36.94,14.03-74.75,10.25-112.37-1.53-15.21-3.59-35.72-12.88-60.44-39.99.68-92.7.05-132.28-38.4C20.77,68.98,6.91,41.52,1.32,9.58L0,2.06l7.58-.87C30.94-1.51,66.23-.93,101.61,17.1c50.65,25.81,71.97,72.01,81.72,95.71,53.53-1.93,107.38-19.12,156.07-49.87l7.69,12.17c-49.34,31.16-103.86,48.99-158.28,51.86,8.55,24.52,10.63,45.22,12.06,59.45,3.97,39.44.35,79.06-10.74,117.77ZM17.03,14.77c5.8,25.64,17.6,47.62,34.38,63.92,33.77,32.81,78.37,34.86,116.43,34.42-9.98-23.12-30.12-61.46-72.76-83.19C66.6,15.41,38.05,13.35,17.03,14.77Z"/>
    </g>
  </g>
</svg>